# AST/ASF file generated using VICON BodyLanguage
# -----------------------------------------------
:version 1.10
:name VICON
:units
  mass 1.0
  length 0.45
  angle deg
:documentation
   .ast/.asf automatically generated from VICON data using
   VICON BodyBuilder and BodyLanguage model FoxedUp or BRILLIANT.MOD
:root
   order TX TY TZ RX RY RZ
   axis XYZ
   position 0 0 0  
   orientation 0 0 0 
:bonedata
  begin
     id 1 
     name lhipjoint
     direction 0.567149 -0.783011 0.255413 
     length 2.28399 
     axis 0 0 0  XYZ
  end
  begin
     id 2 
     name lfemur
     direction 0.34202 -0.939693 0  
     length 7.34031  
     axis 0 0 20  XYZ
    dof rx ry rz
    limits (-160.0 20.0)
           (-70.0 70.0)
           (-60.0 70.0)
  end
  begin
     id 3 
     name ltibia
     direction 0.34202 -0.939693 0   
     length 6.9833   
     axis 0 0 20   XYZ
    dof rx
    limits (-10.0 170.0)
  end
  begin
     id 4 
     name lfoot
     direction 0.136498 -0.375025 0.91691   
     length 2.33665   
     axis -90 7.62852e-016 20   XYZ
    dof rx rz
    limits (-45.0 90.0)
           (-70.0 20.0)
  end
  begin
     id 5 
     name ltoes
     direction 1.5367e-011 -4.21617e-011 1   
     length 1.15039   
     axis -90 7.62852e-016 20   XYZ
    dof rx
    limits (-90.0 20.0)
  end
  begin
     id 6 
     name rhipjoint
     direction -0.602854 -0.758518 0.247423   
     length 2.35775  
     axis 0 0 0  XYZ 
  end
  begin
     id 7 
     name rfemur
     direction -0.34202 -0.939693 0   
     length 7.43932   
     axis 0 0 -20   XYZ
    dof rx ry rz
    limits (-160.0 20.0)
           (-70.0 70.0)
           (-70.0 60.0)
  end
  begin
     id 8 
     name rtibia
     direction -0.34202 -0.939693 0   
     length 7.11893   
     axis 0 0 -20   XYZ
    dof rx
    limits (-10.0 170.0)
 end
 begin
     id 9 
     name rfoot
     direction -0.131771 -0.362037 0.922803   
     length 2.53019  
     axis -90 -7.62852e-016 -20   XYZ
    dof rx rz
    limits (-45.0 90.0)
           (-20.0 70.0)
  end
  begin
     id 10 
     name rtoes
     direction -1.53733e-011 -4.21932e-011 1   
     length 1.24596   
     axis -90 -7.62852e-016 -20   XYZ
    dof rx
    limits (-90.0 20.0)
  end
  begin
     id 11 
     name lowerback
     direction 0.0235427 0.999023 -0.0374125   
     length 2.21768   
     axis 0 0 0   XYZ
    dof rx ry rz
    limits (-20.0 45.0)
           (-30.0 30.0)
           (-30.0 30.0)
  end
  begin
     id 12 
     name upperback
     direction 0.0302156 0.996818 -0.073759   
     length 2.20352   
     axis 0 0 0   XYZ
    dof rx ry rz
    limits (-20.0 45.0)
           (-30.0 30.0)
           (-30.0 30.0)
  end
  begin
     id 13 
     name thorax
     direction 0.0187169 0.998235 -0.0563532   
     length 2.22103   
     axis 0 0 0   XYZ
    dof rx ry rz
    limits (-20.0 45.0)
           (-30.0 30.0)
           (-30.0 30.0)
  end
  begin
     id 14 
     name lowerneck
     direction -0.119528 0.987423 0.103481   
     length 1.72948   
     axis 0 0 0   XYZ
    dof rx ry rz
    limits (-20.0 45.0)
           (-30.0 30.0)
           (-30.0 30.0)
  end
  begin
     id 15 
     name upperneck
     direction 0.248049 0.963095 -0.104496   
     length 1.74979   
     axis 0 0 0   XYZ
    dof rx ry rz
    limits (-20.0 45.0)
           (-30.0 30.0)
           (-30.0 30.0)
  end
  begin
     id 16
     name head
     direction 0.0903589 0.994284 -0.056876  
     length 1.78268  
     axis 0 0 0   XYZ
    dof rx ry rz
    limits (-20.0 45.0)
           (-30.0 30.0)
           (-30.0 30.0)
  end
  begin
     id 17 
     name lclavicle
     direction 0.946008 0.242039 -0.215608  
     length 3.80783  
     axis 0 0 0   XYZ
    dof ry rz
    limits (-20.0 10.0)
           (0.0 20.0)
  end
  begin
     id 18 
     name lhumerus
     direction 1 -4.48991e-011 -2.25695e-027   
     length 4.83125   
     axis 180 -30 -90   XYZ
    dof rx ry rz
    limits (-60.0 90.0)
           (-90.0 90.0)
           (-90.0 90.0)
  end
  begin
     id 19
     name lradius
     direction 0.999991 0.00366712 -0.00211721   
     length 3.00391   
     axis 180 -30 -90   XYZ
    dof rx
    limits (-10.0 170.0)
  end
  begin
     id 20
     name lwrist
     direction 0.999991 0.00393016 -0.00141978   
     length 1.50195   
     axis -1.00488e-014 90 90   XYZ
    dof ry
    limits (-180.0 0.0)
 end
  begin
     id 21 
     name lhand
     direction 1 -4.49123e-011 2.72098e-026   
     length 1.2717   
     axis -1.73687e-014 90 90   XYZ
    dof rx rz
    limits (-90.0 90.0)
           (-45.0 45.0)
  end
  begin
     id 22 
     name lfingers
     direction 1 -4.48678e-011 5.4479e-026   
     length 1.02528   
     axis -3.47372e-014 90 90   XYZ
    dof rx
    limits (0.0 90.0)
  end
  begin
     id 23
     name lthumb
     direction 0.707107 -6.34851e-011 0.707107   
     length 1.4721   
     axis -90 45 -1.62303e-014   XYZ
    dof rx rz
    limits (-45.0 45.0)
           (-45.0 45.0)
  end
  begin
     id 24 
     name rclavicle
     direction -0.981723 0.189447 -0.0181673   
     length 3.74989  
     axis 0 0 0   XYZ 
    dof ry rz
    limits (-10.0 20.0)
           (-20.0 0.0)
  end
  begin
     id 25 
     name rhumerus
     direction -1 -4.48985e-011 2.38206e-027  
     length 4.61118   
     axis 180 30 90   XYZ
    dof rx ry rz
    limits (-90.0 60.0)
           (-90.0 90.0)
           (-90.0 90.0)
  end
  begin
     id 26 
     name rradius
     direction -1 -4.48977e-011 7.41019e-027   
     length 2.91491   
     axis 180 30 90   XYZ
    dof rx
    limits (-10.0 170.0)
  end
  begin
     id 27 
     name rwrist
     direction -1 -4.48549e-011 1.3624e-026   
     length 1.45745   
     axis -1.00488e-014 -90 -90   XYZ
    dof ry
    limits (-180.0 0.0)
  end
  begin
     id 28
     name rhand
     direction -1 -4.49107e-011 2.72109e-026   
     length 1.30769   
     axis -1.73687e-014 -90 -90   XYZ
    dof rx rz
    limits (-90.0 90.0)
           (-45.0 45.0)
  end
  begin
     id 29
     name rfingers
     direction -1 -4.48919e-011 5.44468e-026   
     length 1.05429   
     axis -3.47372e-014 -90 -90   XYZ
    dof rx
    limits (0.0 90.0)
  end
  begin
     id 30
     name rthumb
     direction -0.707107 -6.35315e-011 0.707107   
     length 1.51376   
     axis -90 -45 1.62303e-014   XYZ
    dof rx rz
    limits (-45.0 45.0)
           (-45.0 45.0)
  end
:hierarchy
  begin
    root lhipjoint rhipjoint lowerback
    lhipjoint lfemur
    lfemur ltibia
    ltibia lfoot
    lfoot ltoes
    rhipjoint rfemur
    rfemur rtibia
    rtibia rfoot
    rfoot rtoes
    lowerback upperback
    upperback thorax
    thorax lowerneck lclavicle rclavicle
    lowerneck upperneck
    upperneck head
    lclavicle lhumerus
    lhumerus lradius
    lradius lwrist
    lwrist lhand lthumb
    lhand lfingers
    rclavicle rhumerus
    rhumerus rradius
    rradius rwrist
    rwrist rhand rthumb
    rhand rfingers
  end

#!OML:ASF X:\für Bonn\!DataBase\2005_08_11_Bastian_Final\c3d\Bastian.ASF
:FULLY-SPECIFIED
:DEGREES
1
root -25.7539 17.6748 -27.347 175.168 123.736 -550.259
lowerback -0.120351 0.636859 1.77019
upperback 6.04986 0.826341 0.826333
thorax 6.357 0.513078 -0.0803584
lowerneck -3.02931 -5.70827 -2.63146
upperneck 0.561552 -7.70896 12.3171
head 1.3826 -3.69528 4.33526
rclavicle -3.97569e-014 -6.75868e-015
rhumerus -34.7524 8.53156 -95.3378
rradius 59.4165
rwrist 0.852401
rhand -10.2626 6.38596
rfingers 7.12502
rthumb 15.7307 -22.9947
lclavicle -3.97569e-014 -6.75868e-015
lhumerus -31.9337 -15.1901 89.3493
lradius 37.3583
lwrist 19.1548
lhand -14.1561 -6.62605
lfingers 7.12502
lthumb 11.9786 23.0112
rfemur -25.5345 2.63568 26.7877
rtibia 50.9669
rfoot -22.1029 3.43752
rtoes -13.9441
lfemur -2.08704 9.68044 -15.7521
ltibia 24.335
lfoot -21.4836 2.52948
ltoes -14.9605
2
root -25.7358 17.6762 -27.3248 175.338 124.16 -550.104
lowerback 0.0297017 0.447617 1.66254
upperback 6.05526 0.57782 0.87466
thorax 6.27031 0.382363 0.0142717
lowerneck -2.80857 -5.55721 -2.88343
upperneck 0.44014 -7.48749 12.3968
head 1.30034 -3.59758 4.42857
rclavicle -4.73108e-014 9.54166e-015
rhumerus -34.8072 8.12164 -94.8992
rradius 58.9005
rwrist 0.908339
rhand -10.4568 6.5012
rfingers 7.12502
rthumb 15.5437 -22.8941
lclavicle -4.73108e-014 9.54166e-015
lhumerus -31.8898 -15.5008 89.5171
lradius 37.9752
lwrist 19.0343
lhand -14.3942 -6.48909
lfingers 7.12502
lthumb 11.749 23.1614
rfemur -26.3602 2.11198 26.7866
rtibia 51.9838
rfoot -22.1689 2.91192
rtoes -12.4224
lfemur -1.74182 9.72521 -15.8055
ltibia 23.9062
lfoot -21.4531 2.89785
ltoes -15.1063
3
root -25.7143 17.688 -27.3019 175.526 124.572 -549.907
lowerback 0.198325 0.245632 1.52967
upperback 6.07369 0.313218 0.928352
thorax 6.18794 0.24243 0.128876
lowerneck -2.60723 -5.39615 -3.19123
upperneck 0.311839 -7.25202 12.4889
head 1.22034 -3.4925 4.53745
rclavicle -4.12478e-014 -3.97569e-016
rhumerus -34.8432 7.73626 -94.4279
rradius 58.3615
rwrist 0.91152
rhand -10.6066 6.60737
rfingers 7.12502
rthumb 15.3994 -22.7991
lclavicle -4.12478e-014 -3.97569e-016
lhumerus -31.8358 -15.7645 89.7077
lradius 38.6439
lwrist 18.9489
lhand -14.6672 -6.27286
lfingers 7.12502
lthumb 11.4857 23.3925
rfemur -27.1467 1.58853 26.7521
rtibia 52.9293
rfoot -22.2299 2.32141
rtoes -10.9689
lfemur -1.34247 9.69817 -15.9053
ltibia 23.4225
lfoot -21.4408 3.35957
ltoes -15.4432
4
root -25.6928 17.6897 -27.2789 175.63 124.951 -549.813
lowerback 0.403045 0.045938 1.44463
upperback 6.06297 0.0494901 1.00926
thorax 6.05594 0.104203 0.24598
lowerneck -2.42188 -5.24054 -3.49753
upperneck 0.223657 -7.02875 12.555
head 1.15492 -3.39174 4.63563
rclavicle -2.3556e-014 6.36111e-015
rhumerus -34.9593 7.40913 -93.9159
rradius 57.8357
rwrist 0.887559
rhand -10.7497 6.66808
rfingers 7.12502
rthumb 15.2616 -22.7489
lclavicle -2.3556e-014 6.36111e-015
lhumerus -31.7825 -16.0535 89.9394
lradius 39.2537
lwrist 18.8012
lhand -14.9221 -6.13869
lfingers 7.12502
lthumb 11.2399 23.5402
rfemur -27.9735 1.02672 26.791
rtibia 53.8572
rfoot -22.2746 1.62479
rtoes -9.94741
lfemur -0.936422 9.60308 -15.9537
ltibia 22.9215
lfoot -21.4279 3.84924
ltoes -15.6655
5
root -25.67 17.6917 -27.2537 175.749 125.322 -549.681
lowerback 0.631743 -0.147747 1.33289
upperback 6.06339 -0.203829 1.06795
thorax 5.9238 -0.0294003 0.357102
lowerneck -2.31382 -5.09346 -3.74147
upperneck 0.181447 -6.82318 12.5939
head 1.11516 -3.2956 4.70864
rclavicle -3.68746e-014 -3.57812e-015
rhumerus -35.0854 7.09705 -93.4064
rradius 57.3117
rwrist 0.891727
rhand -10.866 6.69104
rfingers 7.12502
rthumb 15.1496 -22.7344
lclavicle -3.68746e-014 -3.57812e-015
lhumerus -31.691 -16.2943 90.1235
lradius 39.8669
lwrist 18.5868
lhand -15.1446 -6.01328
lfingers 7.12502
lthumb 11.0253 23.6772
rfemur -28.7944 0.482858 26.8094
rtibia 54.7382
rfoot -22.2732 0.892356
rtoes -9.1832
lfemur -0.482642 9.45065 -16.0344
ltibia 22.3756
lfoot -21.39 4.37376
ltoes -16.0409
6
root -25.6452 17.6934 -27.2254 175.888 125.684 -549.552
lowerback 0.842278 -0.319532 1.19311
upperback 6.05831 -0.428396 1.13623
thorax 5.79833 -0.150445 0.496681
lowerneck -2.24961 -4.95678 -3.9472
upperneck 0.122542 -6.63073 12.6296
head 1.07666 -3.20471 4.77144
rclavicle -4.27387e-014 2.46493e-014
rhumerus -35.1933 6.82789 -92.8647
rradius 56.7443
rwrist 0.833136
rhand -10.976 6.65441
rfingers 7.12502
rthumb 15.0436 -22.779
lclavicle -4.27387e-014 2.46493e-014
lhumerus -31.548 -16.5003 90.2972
lradius 40.4524
lwrist 18.249
lhand -15.2132 -5.93627
lfingers 7.12502
lthumb 10.9592 23.7577
rfemur -29.6351 -0.0182053 26.8348
rtibia 55.5867
rfoot -22.2737 0.273622
rtoes -8.72283
lfemur -0.0704118 9.31136 -16.1158
ltibia 21.8838
lfoot -21.4028 4.91991
ltoes -16.4287
7
root -25.62 17.6953 -27.1931 175.944 126.015 -549.478
lowerback 1.10168 -0.508419 1.02921
upperback 6.05591 -0.675845 1.23795
thorax 5.65054 -0.284791 0.685264
lowerneck -2.21281 -4.81487 -4.14905
upperneck 0.104396 -6.43479 12.5984
head 1.05238 -3.11067 4.80806
rclavicle 3.48867e-014 -2.66371e-014
rhumerus -35.3594 6.66178 -92.2983
rradius 56.2182
rwrist 0.741949
rhand -11.0522 6.54579
rfingers 7.12502
rthumb 14.9703 -22.8931
lclavicle 3.48867e-014 -2.66371e-014
lhumerus -31.3801 -16.5378 90.4674
lradius 40.9882
lwrist 17.7771
lhand -15.1996 -5.93971
lfingers 7.12502
lthumb 10.9723 23.7536
rfemur -30.4381 -0.473309 26.896
rtibia 56.372
rfoot -22.268 -0.337987
rtoes -8.63559
lfemur 0.402101 9.19183 -16.133
ltibia 21.3689
lfoot -21.4027 5.37046
ltoes -16.654
8
root -25.5915 17.6963 -27.1579 176.018 126.35 -549.409
lowerback 1.2927 -0.670095 0.891761
upperback 6.06567 -0.889006 1.3279
thorax 5.55649 -0.400177 0.849172
lowerneck -2.19118 -4.68987 -4.32071
upperneck 0.0937403 -6.26379 12.9578
head 0.951802 -3.01761 4.46637
rclavicle -2.27608e-014 3.97569e-016
rhumerus -35.5214 6.43793 -91.703
rradius 55.7055
rwrist 0.638828
rhand -11.0313 6.37268
rfingers 7.12502
rthumb 14.9904 -23.0647
lclavicle -2.27608e-014 3.97569e-016
lhumerus -31.2117 -16.747 90.652
lradius 41.5727
lwrist 17.4007
lhand -15.1129 -5.96268
lfingers 7.12502
lthumb 11.0559 23.7261
rfemur -31.2536 -0.919844 26.9586
rtibia 57.0886
rfoot -22.2766 -0.921543
rtoes -9.06426
lfemur 0.862259 9.11612 -16.1446
ltibia 20.8535
lfoot -21.4144 5.79888
ltoes -17.0437
9
root -25.5628 17.6963 -27.1216 176.057 126.662 -549.341
lowerback 1.58729 -0.842878 0.719407
upperback 6.03444 -1.11584 1.44777
thorax 5.3635 -0.525097 1.06569
lowerneck -2.09479 -4.54694 -4.56719
upperneck 0.0508703 -6.06403 12.9271
head 0.912065 -2.92468 4.5064
rclavicle -1.67973e-014 -4.37326e-015
rhumerus -35.7665 6.25662 -91.0728
rradius 55.1677
rwrist 0.529925
rhand -10.9745 6.22137
rfingers 7.12502
rthumb 15.045 -23.212
lclavicle -1.67973e-014 -4.37326e-015
lhumerus -31.1166 -16.8278 90.8813
lradius 42.1687
lwrist 16.9929
lhand -14.9746 -6.03953
lfingers 7.12502
lthumb 11.1892 23.6421
rfemur -32.0433 -1.3686 27.0097
rtibia 57.7308
rfoot -22.2707 -1.39494
rtoes -9.38053
lfemur 1.35764 9.03858 -16.145
ltibia 20.3573
lfoot -21.4447 6.16258
ltoes -17.3127
10
root -25.5317 17.6954 -27.0831 176.08 126.974 -549.318
lowerback 1.8347 -0.992814 0.595658
upperback 6.01274 -1.31391 1.55746
thorax 5.20839 -0.632715 1.24643
lowerneck -2.05457 -4.42254 -4.76181
upperneck 0.0277916 -5.89167 12.9038
head 0.88821 -2.84235 4.53767
rclavicle 1.25731e-013 -2.22639e-014
rhumerus -36.0411 6.084 -90.4597
rradius 54.6461
rwrist 0.387087
rhand -10.9515 6.00777
rfingers 7.12502
rthumb 15.0673 -23.4239
lclavicle 1.25731e-013 -2.22639e-014
lhumerus -30.9908 -17.0073 91.0945
lradius 42.775
lwrist 16.6319
lhand -14.8029 -6.17603
lfingers 7.12502
lthumb 11.3548 23.4966
rfemur -32.852 -1.79993 27.0757
rtibia 58.3
rfoot -22.275 -1.69022
rtoes -9.51708
lfemur 1.83308 8.97393 -16.1221
ltibia 19.877
lfoot -21.4657 6.56273
ltoes -17.7048
11
root -25.4988 17.6919 -27.0426 176.099 127.271 -549.299
lowerback 2.05122 -1.14198 0.490413
upperback 6.00795 -1.51166 1.65871
thorax 5.08995 -0.738812 1.40883
lowerneck -1.98402 -4.28677 -4.95175
upperneck -0.0440686 -5.6999 12.8755
head 0.842725 -2.75277 4.56833
rclavicle -4.96962e-016 9.93923e-015
rhumerus -36.2816 5.88073 -89.8476
rradius 54.0691
rwrist 0.206609
rhand -10.8653 5.78103
rfingers 7.12502
rthumb 15.1503 -23.6444
lclavicle -4.96962e-016 9.93923e-015
lhumerus -30.8483 -17.194 91.2888
lradius 43.4276
lwrist 16.3304
lhand -14.5865 -6.28756
lfingers 7.12502
lthumb 11.5636 23.3734
rfemur -33.6474 -2.21756 27.1328
rtibia 58.7879
rfoot -22.3277 -1.85238
rtoes -9.69859
lfemur 2.2975 8.90628 -16.0937
ltibia 19.4349
lfoot -21.5337 6.937
ltoes -18.0852
12
root -25.4637 17.6877 -27.0008 176.134 127.552 -549.242
lowerback 2.29052 -1.28253 0.376831
upperback 5.99788 -1.69738 1.75512
thorax 4.9545 -0.839051 1.57286
lowerneck -1.98774 -4.15966 -5.15244
upperneck -0.0397995 -5.52571 12.8321
head 0.83291 -2.66723 4.59305
rclavicle -3.73715e-014 1.74931e-014
rhumerus -36.5736 5.69653 -89.2309
rradius 53.511
rwrist -0.0659214
rhand -10.7522 5.51264
rfingers 7.12502
rthumb 15.2592 -23.9045
lclavicle -3.73715e-014 1.74931e-014
lhumerus -30.721 -17.4018 91.5075
lradius 44.0967
lwrist 16.0497
lhand -14.3856 -6.44138
lfingers 7.12502
lthumb 11.7573 23.2086
rfemur -34.4239 -2.59151 27.143
rtibia 59.1993
rfoot -22.4036 -1.81406
rtoes -9.7479
lfemur 2.78232 8.85929 -16.0827
ltibia 19.0121
lfoot -21.6057 7.2481
ltoes -18.3861
